<svg width="46" height="27" viewBox="0 0 46 27" fill="none" xmlns="http://www.w3.org/2000/svg">
<path d="M36.0703 9C34.8984 9 33.7969 9.1875 32.7656 9.5625L27.2812 0.773438C26.9531 0.257813 26.4844 0 25.875 0H21.375C21.0469 0 20.7656 0.117188 20.5312 0.351562C20.3438 0.539063 20.25 0.796875 20.25 1.125V2.25C20.25 2.57813 20.3438 2.85938 20.5312 3.09375C20.7656 3.28125 21.0469 3.375 21.375 3.375H24.9609L26.0156 5.0625H18V3.9375C18 3.60937 17.8828 3.35156 17.6484 3.16406C17.4609 2.92969 17.2031 2.8125 16.875 2.8125H10.7578C10.2422 2.8125 9.82031 2.97656 9.49219 3.30469C9.16406 3.63281 9 4.03125 9 4.5C9 4.96875 9.16406 5.36719 9.49219 5.69531C9.82031 6.02344 10.2188 6.1875 10.6875 6.1875H14.1328L12.0234 9.5625C11.0859 9.1875 10.0781 9 9 9C7.40625 9 5.90625 9.39844 4.5 10.1953C3.14062 10.9922 2.03906 12.0938 1.19531 13.5C0.398438 14.8594 0 16.3594 0 18C0 19.5938 0.398438 21.0938 1.19531 22.5C1.99219 23.8594 3.07031 24.9609 4.42969 25.8047C5.83594 26.6016 7.35938 27 9 27C11.0625 27 12.8906 26.3672 14.4844 25.1016C16.125 23.8359 17.2031 22.2188 17.7188 20.25H21.375C21.9844 20.25 22.4531 19.9922 22.7812 19.4766L28.8281 9.70312L29.8828 11.3906C28.9922 12.2344 28.2891 13.2422 27.7734 14.4141C27.2578 15.5391 27 16.7344 27 18C27 19.5938 27.3984 21.0938 28.1953 22.5C29.0391 23.8594 30.1406 24.9609 31.5 25.8047C32.8594 26.6016 34.3359 27 35.9297 27C37.5234 27 39 26.625 40.3594 25.875C41.7656 25.0781 42.8672 24 43.6641 22.6406C44.5078 21.2812 44.9531 19.7812 45 18.1406C45.0469 16.5 44.6484 14.9766 43.8047 13.5703C43.0078 12.1641 41.9062 11.0625 40.5 10.2656C39.1406 9.42188 37.6641 9 36.0703 9ZM13.1484 14.2031C13.8516 14.9531 14.2969 15.8438 14.4844 16.875H11.4609L13.1484 14.2031ZM9 23.625C7.45312 23.625 6.11719 23.0859 4.99219 22.0078C3.91406 20.8828 3.375 19.5469 3.375 18C3.375 16.4531 3.91406 15.1406 4.99219 14.0625C6.11719 12.9375 7.45312 12.375 9 12.375C9.42188 12.375 9.82031 12.4219 10.1953 12.5156L7.03125 17.6484C6.65625 18.2109 6.63281 18.7969 6.96094 19.4062C7.28906 19.9688 7.78125 20.25 8.4375 20.25H14.1328C13.7109 21.2812 13.0312 22.1016 12.0938 22.7109C11.1562 23.3203 10.125 23.625 9 23.625ZM20.4609 16.875H17.9297C17.6484 14.625 16.6641 12.75 14.9766 11.25L16.6641 8.4375H25.6641L20.4609 16.875ZM35.7188 23.625C34.2656 23.5312 33.0234 22.9688 31.9922 21.9375C30.9609 20.9062 30.4219 19.6641 30.375 18.2109C30.3281 16.7578 30.7734 15.4688 31.7109 14.3438L34.875 19.3359C35.0156 19.6172 35.2266 19.8047 35.5078 19.8984C35.8359 19.9453 36.1406 19.8984 36.4219 19.7578L37.3359 19.125C37.6172 18.9844 37.7812 18.7734 37.8281 18.4922C37.9219 18.1641 37.8984 17.8594 37.7578 17.5781L34.5938 12.5156C35.0625 12.4219 35.5312 12.375 36 12.375C37.5469 12.375 38.8594 12.9375 39.9375 14.0625C41.0625 15.1406 41.625 16.4766 41.625 18.0703C41.625 19.6172 41.0391 20.9531 39.8672 22.0781C38.6953 23.2031 37.3125 23.7188 35.7188 23.625Z" fill="white"/>
</svg>
